<!DOCTYPE svg PUBLIC "-//W3C//DTD SVG 1.1//EN" "http://www.w3.org/Graphics/SVG/1.1/DTD/svg11.dtd">

<!-- Uploaded to: SVG Repo, www.svgrepo.com, Transformed by: SVG Repo Mixer Tools -->
<svg fill="#ffffff" height="800px" width="800px" version="1.1" id="Capa_1" xmlns="http://www.w3.org/2000/svg" xmlns:xlink="http://www.w3.org/1999/xlink" viewBox="0 0 360 360" xml:space="preserve">

<g id="SVGRepo_bgCarrier" stroke-width="0"/>

<g id="SVGRepo_tracerCarrier" stroke-linecap="round" stroke-linejoin="round"/>

<g id="SVGRepo_iconCarrier"> <g id="XMLID_1013_"> <path id="XMLID_1014_" d="M345.402,124.865h-50.803V77.834L211.576,0H14.598v360h280v-52.408h50.803V124.865z M315.402,277.592 H105.402V154.865h209.999V277.592z"/> <polygon id="XMLID_1017_" points="119.235,243.772 132.435,243.772 147.307,221.42 162.091,243.772 175.203,243.772 153.643,212.972 175.907,181.292 162.795,181.292 147.307,204.524 131.731,181.292 118.531,181.292 140.795,212.972 "/> <polygon id="XMLID_1018_" points="194.298,202.412 210.403,233.212 217.002,233.212 233.107,202.412 233.107,243.772 245.25,243.772 245.25,181.292 232.315,181.292 213.658,216.844 195.179,181.292 182.155,181.292 182.155,243.772 194.298,243.772 "/> <polygon id="XMLID_1019_" points="302.274,233.124 270.417,233.124 270.417,181.292 258.274,181.292 258.274,243.772 302.274,243.772 "/> </g> </g>

</svg>